HIERARCHY
ROOT Hips
{
	OFFSET 0.00000 0.00000 0.00000
	CHANNELS 6 Xposition Yposition Zposition Zrotation Yrotation Xrotation 
	JOINT LHipJoint
	{
		OFFSET 0 0 0
		CHANNELS 3 Zrotation Yrotation Xrotation
		JOINT LeftUpLeg
		{
			OFFSET 1.53794 -1.55850 0.93568
			CHANNELS 3 Zrotation Yrotation Xrotation
			JOINT LeftLeg
			{
				OFFSET 2.28545 -6.27922 0.00000
				CHANNELS 3 Zrotation Yrotation Xrotation
				JOINT LeftFoot
				{
					OFFSET 2.37329 -6.52057 0.00000
					CHANNELS 3 Zrotation Yrotation Xrotation
					JOINT LeftToeBase
					{
						OFFSET 0.14846 -0.40788 2.09160
						CHANNELS 3 Zrotation Yrotation Xrotation
						End Site
						{
							OFFSET 0.00000 -0.00000 1.07536
						}
					}
				}
			}
		}
	}
	JOINT RHipJoint
	{
		OFFSET 0 0 0
		CHANNELS 3 Zrotation Yrotation Xrotation
		JOINT RightUpLeg
		{
			OFFSET -1.78290 -1.55850 0.93568
			CHANNELS 3 Zrotation Yrotation Xrotation
			JOINT RightLeg
			{
				OFFSET -2.24144 -6.15831 0.00000
				CHANNELS 3 Zrotation Yrotation Xrotation
				JOINT RightFoot
				{
					OFFSET -2.35091 -6.45907 0.00000
					CHANNELS 3 Zrotation Yrotation Xrotation
					JOINT RightToeBase
					{
						OFFSET -0.14428 -0.39641 2.07944
						CHANNELS 3 Zrotation Yrotation Xrotation
						End Site
						{
							OFFSET -0.00000 -0.00000 1.06864
						}
					}
				}
			}
		}
	}
	JOINT LowerBack
	{
		OFFSET 0 0 0
		CHANNELS 3 Zrotation Yrotation Xrotation
		JOINT Spine
		{
			OFFSET -0.08841 2.11430 -0.15818
			CHANNELS 3 Zrotation Yrotation Xrotation
			JOINT Spine1
			{
				OFFSET -0.00033 2.12605 -0.08097
				CHANNELS 3 Zrotation Yrotation Xrotation
				JOINT Neck
				{
					OFFSET 0 0 0
					CHANNELS 3 Zrotation Yrotation Xrotation
					JOINT Neck1
					{
						OFFSET 0.04431 1.59447 0.43193
						CHANNELS 3 Zrotation Yrotation Xrotation
						JOINT Head
						{
							OFFSET 0.00455 1.62017 -0.58852
							CHANNELS 3 Zrotation Yrotation Xrotation
							End Site
							{
								OFFSET -0.00920 1.72955 -0.25850
							}
						}
					}
				}
				JOINT LeftShoulder
				{
					OFFSET 0 0 0
					CHANNELS 3 Zrotation Yrotation Xrotation
					JOINT LeftArm
					{
						OFFSET 2.86490 1.49927 -0.33774
						CHANNELS 3 Zrotation Yrotation Xrotation
						JOINT LeftForeArm
						{
							OFFSET 4.87408 -0.00000 0.00000
							CHANNELS 3 Zrotation Yrotation Xrotation
							JOINT LeftHand
							{
								OFFSET 2.76729 -0.00000 0.00000
								CHANNELS 3 Zrotation Yrotation Xrotation
								JOINT LeftFingerBase
								{
									OFFSET 0 0 0
									CHANNELS 3 Zrotation Yrotation Xrotation
									JOINT LeftHandIndex1
									{
										OFFSET 0.98922 -0.00000 0.00000
										CHANNELS 3 Zrotation Yrotation Xrotation
										End Site
										{
											OFFSET 0.79753 -0.00000 0.00000
										}
									}
								}
								JOINT LThumb
								{
									OFFSET 0 0 0
									CHANNELS 3 Zrotation Yrotation Xrotation
									End Site
									{
										OFFSET 0.80972 -0.00000 0.80972
									}
								}
							}
						}
					}
				}
				JOINT RightShoulder
				{
					OFFSET 0 0 0
					CHANNELS 3 Zrotation Yrotation Xrotation
					JOINT RightArm
					{
						OFFSET -2.94414 1.45463 -0.25291
						CHANNELS 3 Zrotation Yrotation Xrotation
						JOINT RightForeArm
						{
							OFFSET -4.71404 -0.00000 0.00000
							CHANNELS 3 Zrotation Yrotation Xrotation
							JOINT RightHand
							{
								OFFSET -2.83468 -0.00000 0.00000
								CHANNELS 3 Zrotation Yrotation Xrotation
								JOINT RightFingerBase
								{
									OFFSET 0 0 0
									CHANNELS 3 Zrotation Yrotation Xrotation
									JOINT RightHandIndex1
									{
										OFFSET -0.86820 -0.00000 0.00000
										CHANNELS 3 Zrotation Yrotation Xrotation
										End Site
										{
											OFFSET -0.69996 -0.00000 0.00000
										}
									}
								}
								JOINT RThumb
								{
									OFFSET 0 0 0
									CHANNELS 3 Zrotation Yrotation Xrotation
									End Site
									{
										OFFSET -0.71065 -0.00000 0.71065
									}
								}
							}
						}
					}
				}
			}
		}
	}
}
MOTION
Frames: 13
Frame Time: .0083333
-13.6818 16.4941 28.5751 0 0 0 0 0 0 -21 0 0 0 0 0 0 0 0 0 0 0 0 0 0 21 0 0 0 0 0 0 0 0 0 0 0 0 0 0 0 0 0 0 0 0 0 0 -16 0 0 21 0 0 11 0 0 0 -8 0 0 0 0 0 0 0 0 0 0 0 0 0 0 0 0 0 0 0 0 8 0 0 0 0 0 0 0 0 0 0 0 0 0 0 0 0 0
-13.6818 16.4941 28.5751 177.6310 -2.8980 -169.1370 0.0000 0.0000 0.0000 -13.2451 -21.3529 -38.2359 2.8911 10.5166 30.6663 0.2189 11.4838 10.9156 0.0756 -1.7741 -4.8818 0.0000 0.0000 0.0000 26.0672 -0.5492 9.3203 -1.7432 -8.3094 23.6577 -1.0070 -22.4071 22.4332 -0.8431 5.8569 -16.3699 -2.5701 4.7028 -5.0899 -2.0283 6.4688 0.8355 -0.1380 3.1633 3.6576 -2.4532 -3.2068 -33.2873 3.4372 -10.7363 44.3719 -1.5189 -4.5819 28.2613 -0.0000 0.0000 0.0000 -64.6175 37.7099 55.7400 108.7403 -58.6305 -76.1550 -0.0000 -0.0000 15.9768 15.7695 6.3006 1.7751 -7.1250 0.0000 -0.0000 -9.2259 36.3901 1.9740 -0.0000 0.0000 0.0000 77.3958 -9.3229 48.5709 -106.9450 58.8868 -74.6200 0.0000 0.0000 8.6376 -14.1472 -2.0431 0.5149 7.1250 -0.0000 -0.0000 9.9778 -31.9821 3.2212
-13.6758 16.5200 28.1957 177.5480 -2.8988 -168.9580 0.0000 0.0000 0.0000 -13.1668 -21.4608 -37.6601 2.4146 9.6810 27.9498 0.2561 11.8069 11.5070 0.0606 -1.5880 -4.3684 0.0000 0.0000 0.0000 26.1550 -0.2653 9.2316 -1.9497 -8.7605 25.0489 -1.0644 -23.1924 23.1453 -0.7280 5.4515 -15.2010 -2.7809 4.6509 -5.6079 -2.0715 6.4350 0.8732 -0.0218 3.1343 3.9704 -2.7816 -3.4105 -33.6521 3.4897 -10.7512 44.2300 -1.4294 -4.6093 28.3169 0.0000 0.0000 0.0000 -64.8006 37.8045 55.4400 109.5006 -58.5132 -76.8037 -0.0000 -0.0000 15.8439 15.5626 6.5371 1.8161 -7.1250 0.0000 -0.0000 -9.4339 36.6203 1.9658 0.0000 0.0000 0.0000 76.9444 -9.5130 49.0848 -106.5578 58.9383 -74.2883 0.0000 0.0000 7.9158 -14.0121 -2.1584 0.5385 7.1250 -0.0000 -0.0000 10.0991 -32.0955 3.2334
-13.6715 16.5279 27.8212 177.7030 -2.8642 -168.9370 0.0000 0.0000 0.0000 -12.8248 -21.5794 -37.5606 2.2443 9.3574 26.9200 0.3057 11.9368 12.1206 0.0218 -0.9533 -2.6204 0.0000 0.0000 0.0000 26.4970 0.0800 8.8109 -2.3225 -9.5078 27.3971 -0.9609 -24.2506 23.0723 -0.5752 4.8569 -13.5008 -3.2098 5.2956 -8.3931 -1.8329 7.4634 1.1404 0.8437 3.5842 5.7177 -2.6105 -3.8824 -30.0226 3.5511 -11.5677 43.4968 -1.4626 -5.0399 25.7035 0.0000 0.0000 0.0000 -63.3875 37.3108 57.9648 109.7660 -58.4710 -77.0300 -0.0000 -0.0000 15.6061 15.6937 7.1398 2.0001 -7.1250 0.0000 -0.0000 -9.4183 37.2444 1.8170 0.0000 0.0000 0.0000 76.9592 -11.3398 47.3375 -105.9628 59.0150 -73.7784 0.0000 0.0000 8.7090 -13.6661 -1.7981 0.4371 7.1250 -0.0000 -0.0000 10.3304 -31.7214 3.4041
-13.6701 16.5078 27.4547 177.9580 -2.7903 -169.1590 0.0000 0.0000 0.0000 -12.8303 -21.1734 -36.6096 2.0800 9.0308 25.8917 0.3594 12.2089 12.8151 0.0827 -1.8555 -5.1064 0.0000 0.0000 0.0000 26.8482 0.1952 8.3775 -2.7282 -10.2415 29.7625 -0.8192 -24.8311 22.5655 -0.6234 5.0527 -14.0589 -3.0362 5.0206 -8.2909 -1.6389 7.0768 1.2823 0.9004 3.3970 5.8163 -3.0894 -3.6588 -30.3660 3.7420 -11.1538 43.7644 -1.1775 -4.9667 26.2377 0.0000 -0.0000 0.0000 -64.6243 37.2390 56.7823 109.8062 -58.4646 -77.0643 -0.0000 -0.0000 15.6382 15.5876 6.9721 1.9395 -7.1250 0.0000 -0.0000 -9.4806 37.0663 1.8711 0.0000 -0.0000 0.0000 76.5457 -11.5054 47.9365 -104.6744 59.1705 -72.6730 0.0000 0.0000 7.5726 -13.6212 -2.0231 0.4901 7.1250 -0.0000 -0.0000 10.3933 -31.9479 3.3679
-13.6687 16.4833 27.0884 178.1050 -2.7579 -169.3500 0.0000 0.0000 0.0000 -12.8468 -20.9230 -36.1769 2.0279 8.9240 25.5579 0.4011 12.3529 13.3058 0.1002 -2.0412 -5.6196 0.0000 0.0000 0.0000 27.1016 0.3282 7.7829 -3.2335 -11.0637 32.4951 -0.6521 -25.3531 21.8933 -0.5929 4.9295 -13.7075 -2.9326 4.7482 -8.2056 -1.4996 6.7019 1.4303 0.9419 3.2124 5.9295 -3.2846 -3.4466 -30.9082 3.7189 -10.6379 43.8575 -1.0200 -4.8108 26.5772 0.0000 0.0000 0.0000 -65.7447 37.1590 55.6658 109.9615 -58.4395 -77.1966 -0.0000 -0.0000 15.6560 15.6064 7.0938 1.9756 -7.1250 0.0000 -0.0000 -9.4841 37.1919 1.8423 0.0000 0.0000 0.0000 76.1019 -11.6236 48.5097 -103.2308 59.3281 -71.4324 0.0000 0.0000 7.3592 -13.5294 -2.1537 0.5181 7.1250 -0.0000 -0.0000 10.4823 -32.0775 3.3643
-13.6686 16.4433 26.7260 178.2190 -2.7515 -169.6490 0.0000 0.0000 0.0000 -13.1079 -20.4310 -35.7226 2.0642 8.9986 25.7910 0.4441 12.2351 13.6883 0.1094 -2.1331 -5.8736 0.0000 0.0000 0.0000 27.2762 0.3422 7.0218 -3.8527 -11.9618 35.5970 -0.4428 -25.7140 20.8832 -0.5719 4.8429 -13.4611 -2.8474 4.4681 -7.9765 -1.3598 6.3126 1.6074 0.9807 3.0213 5.9908 -3.4282 -3.2167 -31.4439 3.6735 -10.0982 43.9401 -0.8721 -4.6436 26.8936 0.0000 -0.0000 0.0000 -66.8541 36.9183 54.6078 109.9414 -58.4428 -77.1795 -0.0000 -0.0000 15.7332 15.6889 7.1750 2.0092 -7.1250 0.0000 -0.0000 -9.4279 37.2801 1.8106 0.0000 -0.0000 0.0000 75.7793 -11.8497 48.8622 -101.5489 59.4900 -69.9845 0.0000 0.0000 7.3371 -13.4754 -2.3566 0.5645 7.1250 -0.0000 -0.0000 10.5507 -32.2811 3.3343
-13.6695 16.3882 26.3676 178.2540 -2.7844 -170.0430 0.0000 0.0000 0.0000 -13.6791 -19.6630 -35.0760 2.1321 9.1361 26.2219 0.4704 11.8191 13.7881 0.1187 -2.2216 -6.1184 0.0000 0.0000 0.0000 27.3100 0.1947 6.1425 -4.5639 -12.8752 38.9031 -0.2264 -25.9203 19.7162 -0.5567 4.7793 -13.2800 -2.8285 4.1758 -7.6150 -1.2358 5.9081 1.8112 1.0289 2.8209 6.0009 -3.5584 -2.9924 -31.9475 3.6320 -9.5551 43.9877 -0.7154 -4.4752 27.1550 0.0000 -0.0000 0.0000 -67.9187 36.5195 53.6245 109.7587 -58.4722 -77.0238 -0.0000 -0.0000 15.8826 15.8191 7.1923 2.0316 -7.1250 0.0000 -0.0000 -9.3214 37.3059 1.7837 0.0000 -0.0000 0.0000 75.5581 -12.1532 49.0218 -99.6113 59.6480 -68.3138 0.0000 0.0000 7.3663 -13.4645 -2.6738 0.6399 7.1250 -0.0000 -0.0000 10.6002 -32.6014 3.2671
-13.6710 16.3198 26.0132 178.1890 -2.8908 -170.5160 0.0000 0.0000 0.0000 -14.5091 -18.7074 -34.3326 2.2591 9.3861 27.0108 0.4441 11.1902 13.2859 0.1306 -2.3293 -6.4166 0.0000 0.0000 0.0000 27.1829 -0.1234 5.1116 -5.3790 -13.7983 42.4353 -0.0034 -26.0322 18.4098 -0.5445 4.7275 -13.1328 -2.8918 3.8631 -7.1273 -1.1370 5.4782 2.0385 1.0871 2.6050 5.9605 -3.6434 -2.7775 -32.4979 3.5598 -9.0196 44.0210 -0.5848 -4.3023 27.4136 -0.0000 -0.0000 0.0000 -68.9151 35.9656 52.7211 109.4192 -58.5260 -76.7343 -0.0000 -0.0000 16.1132 15.9880 7.1519 2.0430 -7.1250 0.0000 -0.0000 -9.1732 37.2752 1.7617 -0.0000 -0.0000 0.0000 75.4313 -12.5383 48.9592 -97.3544 59.7946 -66.3647 0.0000 0.0000 7.7078 -13.4270 -3.0187 0.7203 7.1250 -0.0000 -0.0000 10.6757 -32.9485 3.2001
-13.6731 16.2391 25.6634 178.0260 -3.0853 -171.0460 0.0000 0.0000 0.0000 -15.5055 -17.6866 -33.4767 2.4399 9.7278 28.0996 0.3519 10.5439 12.0407 0.1408 -2.4187 -6.6642 0.0000 0.0000 0.0000 26.8957 -0.6004 3.9312 -6.2884 -14.7021 46.1284 0.2038 -26.0778 17.1094 -0.5407 4.7111 -13.0865 -3.0335 3.5305 -6.5284 -1.0684 5.0217 2.2789 1.1511 2.3726 5.8694 -3.7459 -2.5907 -33.0796 3.5047 -8.5257 44.0510 -0.4517 -4.1450 27.6979 -0.0000 -0.0000 0.0000 -69.8308 35.2641 51.9137 108.9271 -58.6022 -76.3144 -0.0000 -0.0000 16.3788 16.2082 7.0428 2.0412 -7.1250 0.0000 -0.0000 -8.9716 37.1770 1.7440 -0.0000 -0.0000 0.0000 75.3907 -12.9927 48.7172 -94.8115 59.9123 -64.1657 0.0000 0.0000 8.1259 -13.3997 -3.4277 0.8160 7.1250 -0.0000 -0.0000 10.7530 -33.3605 3.1150
-13.6752 16.1496 25.3179 177.7780 -3.3860 -171.6130 0.0000 0.0000 0.0000 -16.5559 -16.7576 -32.5084 2.6732 10.1462 29.4516 0.1977 10.2174 10.0312 0.1560 -2.5446 -7.0132 0.0000 0.0000 0.0000 26.4717 -1.2057 2.6296 -7.2783 -15.5618 49.9191 0.4166 -26.1453 15.7351 -0.5419 4.7166 -13.1021 -3.2371 3.1771 -5.8382 -1.0298 4.5345 2.5306 1.2156 2.1218 5.7396 -3.8007 -2.4089 -33.7061 3.4405 -8.0685 44.0899 -0.3442 -3.9921 28.0195 -0.0000 0.0000 0.0000 -70.6516 34.4050 51.2097 108.2842 -58.6983 -75.7654 -0.0000 -0.0000 16.6794 16.4284 6.8844 2.0242 -7.1250 0.0000 -0.0000 -8.7629 37.0276 1.7350 -0.0000 0.0000 0.0000 75.4347 -13.5202 48.3055 -91.9940 59.9850 -61.7268 0.0000 0.0000 8.6213 -13.4415 -3.8606 0.9219 7.1250 -0.0000 -0.0000 10.7799 -33.7991 3.0065
-13.6767 16.0537 24.9762 177.4600 -3.7861 -172.1900 0.0000 0.0000 0.0000 -17.5835 -16.0387 -31.4587 2.9550 10.6218 31.0148 0.0136 10.4068 7.5141 0.1594 -2.5723 -7.0901 0.0000 0.0000 0.0000 25.9365 -1.8827 1.2230 -8.3345 -16.3598 53.7588 0.6334 -26.2131 14.2709 -0.5477 4.7411 -13.1715 -3.4940 2.8094 -5.0857 -1.0211 4.0233 2.7833 1.2805 1.8558 5.5782 -3.7819 -2.2336 -34.4911 3.3206 -7.6325 44.1494 -0.2946 -3.8331 28.4454 0.0000 -0.0000 0.0000 -71.3780 33.3966 50.6253 107.4963 -58.8111 -75.0917 -0.0000 -0.0000 16.9487 16.6603 6.7017 2.0002 -7.1250 0.0000 -0.0000 -8.5417 36.8536 1.7272 0.0000 -0.0000 0.0000 75.5807 -14.1129 47.7295 -88.8797 59.9953 -59.0298 0.0000 0.0000 9.2137 -13.5603 -4.3347 1.0444 7.1250 -0.0000 -0.0000 10.7518 -34.2825 2.8702
-13.6771 15.9542 24.6386 177.0590 -4.2740 -172.7460 0.0000 0.0000 0.0000 -18.5960 -15.5705 -30.3551 3.2748 11.1271 32.7097 -0.1751 11.0856 4.7612 0.1421 -2.4293 -6.6937 0.0000 0.0000 0.0000 25.2851 -2.5710 -0.2876 -9.4447 -17.0855 57.6155 0.8446 -26.2304 12.7217 -0.5493 4.7479 -13.1910 -3.8193 2.4324 -4.2858 -1.0492 3.4947 3.0269 1.3501 1.5775 5.3835 -3.7196 -2.0613 -35.2249 3.2188 -7.2369 44.1831 -0.2503 -3.6794 28.8238 0.0000 -0.0000 0.0000 -72.0133 32.2284 50.1617 106.5373 -58.9410 -74.2708 -0.0000 -0.0000 17.1732 16.8661 6.5157 1.9704 -7.1250 0.0000 -0.0000 -8.3429 36.6739 1.7232 0.0000 -0.0000 0.0000 75.8444 -14.7713 47.0031 -85.5183 59.9240 -56.1197 0.0000 0.0000 9.7181 -13.8255 -4.8513 1.1923 7.1250 -0.0000 -0.0000 10.6120 -34.8163 2.6919
